<svg aria-hidden="true" style="position: absolute; width: 0; height: 0; overflow: hidden;" version="1.1" xmlns="http://www.w3.org/2000/svg" xmlns:xlink="http://www.w3.org/1999/xlink">
<defs>
<symbol id="icon-mail" viewBox="0 0 32 32">
<path d="M29.728 26.848v-13.696q-0.576 0.64-1.248 1.152-4.768 3.68-7.616 6.048-0.896 0.768-1.472 1.184t-1.536 0.896-1.824 0.416h-0.064q-0.832 0-1.824-0.416t-1.536-0.896-1.472-1.184q-2.816-2.368-7.616-6.048-0.672-0.512-1.248-1.152v13.696q0 0.224 0.192 0.416t0.384 0.16h26.304q0.224 0 0.384-0.16t0.192-0.416zM29.728 8.096v-0.448t-0.032-0.224-0.032-0.224-0.096-0.16-0.16-0.128-0.256-0.064h-26.304q-0.224 0-0.384 0.192t-0.192 0.384q0 3.008 2.656 5.088 3.424 2.688 7.136 5.632 0.128 0.096 0.64 0.544t0.8 0.672 0.8 0.544 0.896 0.512 0.768 0.16h0.064q0.352 0 0.768-0.16t0.896-0.512 0.8-0.544 0.8-0.672 0.64-0.544q3.712-2.944 7.168-5.632 0.96-0.768 1.792-2.080t0.832-2.336zM32 7.424v19.424q0 1.184-0.832 2.016t-2.016 0.864h-26.304q-1.152 0-2.016-0.864t-0.832-2.016v-19.424q0-1.184 0.832-2.016t2.016-0.832h26.304q1.184 0 2.016 0.832t0.832 2.016z"></path>
</symbol>
<symbol id="icon-phone" viewBox="0 0 25 32">
<path d="M25.152 22.144q0 0.48-0.192 1.248t-0.384 1.216q-0.352 0.896-2.176 1.92-1.664 0.896-3.296 0.896-0.48 0-0.96-0.064t-1.024-0.224-0.832-0.256-0.992-0.352-0.896-0.32q-1.728-0.64-3.104-1.504-2.272-1.408-4.736-3.84t-3.84-4.736q-0.864-1.376-1.472-3.104-0.064-0.16-0.32-0.896t-0.384-0.992-0.256-0.832-0.224-1.024-0.064-0.928q0-1.664 0.928-3.328 0.992-1.824 1.888-2.176 0.448-0.192 1.216-0.384t1.248-0.192q0.256 0 0.384 0.064 0.32 0.096 0.96 1.344 0.192 0.352 0.512 0.992t0.64 1.12 0.544 0.96q0.064 0.064 0.32 0.448t0.384 0.64 0.128 0.512q0 0.352-0.512 0.864t-1.12 0.992-1.088 0.96-0.512 0.8q0 0.16 0.096 0.416t0.128 0.352 0.256 0.448 0.224 0.32q1.344 2.464 3.104 4.224t4.192 3.104q0.032 0 0.32 0.192t0.448 0.256 0.352 0.16 0.416 0.064q0.32 0 0.8-0.512t0.96-1.088 0.992-1.12 0.896-0.512q0.224 0 0.48 0.128t0.64 0.384 0.448 0.32q0.448 0.256 0.96 0.544t1.152 0.64 0.96 0.544q1.248 0.608 1.344 0.928 0.064 0.128 0.064 0.384z"></path>
</symbol>
<symbol id="icon-gear" viewBox="0 0 32 32">
<path d="M31.993 16.007c-0.034-1.267-0.804-2.346-1.897-2.828l-0.020-0.008c-1.522-0.357-2.638-1.704-2.638-3.31 0-0.671 0.195-1.297 0.531-1.824l-0.008 0.014c0.155-0.354 0.245-0.766 0.245-1.199 0-1.688-1.369-3.057-3.057-3.057-0.433 0-0.846 0.090-1.219 0.253l0.020-0.008c-0.555 0.269-1.206 0.427-1.895 0.427-0.432 0-0.849-0.062-1.244-0.177l0.031 0.008c-0.935-0.522-1.646-1.352-2.003-2.35l-0.010-0.030c-0.469-1.13-1.563-1.91-2.839-1.91s-2.371 0.78-2.832 1.889l-0.007 0.020c-0.36 1.523-1.708 2.64-3.317 2.64-0.668 0-1.291-0.192-1.817-0.525l0.014 0.008c-0.354-0.155-0.766-0.245-1.199-0.245-1.688 0-3.057 1.369-3.057 3.057 0 0.433 0.090 0.846 0.253 1.219l-0.008-0.020c0.324 0.512 0.517 1.135 0.517 1.804 0 1.607-1.113 2.953-2.609 3.312l-0.023 0.005c-1.134 0.464-1.918 1.558-1.918 2.836s0.784 2.372 1.897 2.828l0.020 0.007c1.522 0.357 2.638 1.704 2.638 3.31 0 0.671-0.195 1.297-0.531 1.824l0.008-0.014c-0.155 0.354-0.245 0.766-0.245 1.199 0 1.688 1.369 3.057 3.057 3.057 0.433 0 0.846-0.090 1.219-0.253l-0.020 0.008c0.512-0.324 1.135-0.517 1.803-0.517 1.609 0 2.957 1.116 3.313 2.617l0.005 0.023c0.469 1.13 1.563 1.91 2.839 1.91s2.371-0.78 2.832-1.889l0.007-0.020c0.357-1.524 1.705-2.642 3.314-2.642 0.669 0 1.294 0.193 1.82 0.528l-0.014-0.008c0.354 0.155 0.766 0.245 1.199 0.245 1.688 0 3.057-1.369 3.057-3.057 0-0.433-0.090-0.846-0.253-1.219l0.008 0.020c-0.328-0.513-0.522-1.139-0.522-1.81 0-1.607 1.116-2.953 2.615-3.306l0.023-0.005c1.113-0.49 1.883-1.569 1.917-2.831l0-0.004zM15.985 21.877c-3.238-0.002-5.862-2.628-5.862-5.866 0-3.24 2.626-5.866 5.866-5.866s5.866 2.626 5.866 5.866c0 0.001 0 0.003 0 0.004v-0c0 0 0 0 0 0.001 0 3.237-2.624 5.862-5.862 5.862-0.003 0-0.006 0-0.009 0h0z"></path>
</symbol>
<symbol id="icon-left" viewBox="0 0 18 32">
<path d="M16.683 32.004l-16.681-16.004 16.681-16.005 0.864 0.877-15.763 15.127 15.765 15.126z"></path>
</symbol>
<symbol id="icon-logo" viewBox="0 0 37 32">
<path d="M21.341 6.219h-6.1l3.050 5.335zM14.479 6.664l-3.050 5.335h6.1zM25.154 11.999l-3.050-5.335-3.050 5.335h6.1zM19.054 12.887l3.050 5.334 3.050-5.334h-6.1zM11.429 12.887l3.050 5.334 3.050-5.334h-6.1zM7.617 18.664h6.099l-3.049-5.333zM28.966 18.664l-3.049-5.333-3.049 5.333h6.095zM18.292-0.005l-3.050 5.335h6.1zM25.917 24.888l3.049-5.334h-6.095zM10.666 24.888l3.049-5.334h-6.099zM3.804 25.334h6.097l-3.049-5.335zM32.779 25.334l-3.050-5.335-3.052 5.335h6.1zM26.677 26.222l3.050 5.333 3.050-5.333h-6.1zM19.053 26.222l3.050 5.333 3.050-5.333h-6.098zM6.852 31.555l3.049-5.333h-6.096zM-0.009 32.002h6.095l-3.050-5.334zM15.24 32.002h6.1l-3.050-5.334zM22.866 32.002h6.095l-3.049-5.334zM33.54 26.668l-3.049 5.334h6.095z"></path>
</symbol>
<symbol id="icon-pencil" viewBox="0 0 32 32">
<path d="M31.695 11.155c-0.194-0.193-0.461-0.313-0.756-0.313s-0.562 0.119-0.756 0.313l-9.311 9.306-13.090 5.769-2.017-2.017 5.767-13.092 9.309-9.306c0.194-0.194 0.314-0.461 0.314-0.756 0-0.591-0.479-1.069-1.069-1.069-0.295 0-0.562 0.12-0.756 0.313l-9.594 9.589-9.734 22.102 22.101-9.73 9.593-9.595c0.194-0.194 0.313-0.461 0.313-0.757s-0.119-0.563-0.313-0.756l0 0zM18.131 18.552c0.195 0.191 0.462 0.309 0.756 0.309s0.562-0.118 0.757-0.309l8.964-8.97c0.192-0.193 0.311-0.46 0.311-0.754 0-0.591-0.479-1.070-1.070-1.070-0.294 0-0.561 0.119-0.754 0.311l-8.961 8.97c-0.193 0.194-0.313 0.461-0.313 0.756s0.119 0.563 0.313 0.756l-0-0zM15.791 16.212c0.195 0.191 0.462 0.309 0.756 0.309s0.562-0.118 0.757-0.309l8.965-8.97c0.192-0.193 0.311-0.46 0.311-0.754 0-0.591-0.479-1.070-1.070-1.070-0.294 0-0.561 0.119-0.754 0.311l-8.965 8.963c-0.194 0.195-0.314 0.463-0.314 0.76s0.12 0.565 0.314 0.76l-0-0zM13.45 13.865c0.193 0.195 0.461 0.316 0.756 0.316s0.564-0.121 0.756-0.316l8.965-8.963c0.192-0.193 0.311-0.46 0.311-0.754 0-0.591-0.479-1.070-1.070-1.070-0.294 0-0.561 0.119-0.754 0.311l-8.965 8.963c-0.193 0.194-0.313 0.461-0.313 0.756s0.12 0.563 0.313 0.756l-0-0z"></path>
</symbol>
<symbol id="icon-right" viewBox="0 0 18 32">
<path d="M0.864 32.004l16.685-16.004-16.685-16.005-0.864 0.877 15.764 15.126-15.764 15.128z"></path>
</symbol>
<symbol id="icon-search" viewBox="0 0 32 32">
<path d="M31.68 30.241l-8.253-8.127c2.16-2.322 3.488-5.444 3.493-8.876v-0.001c0.001-0.066 0.002-0.143 0.002-0.221 0-7.437-6.029-13.467-13.467-13.467s-13.467 6.029-13.467 13.467c0 7.437 6.028 13.466 13.465 13.467h0c0.006 0 0.013 0 0.021 0 3.211 0 6.162-1.115 8.486-2.978l-0.027 0.021 8.28 8.159c0.189 0.184 0.448 0.298 0.733 0.298s0.544-0.114 0.734-0.298l-0 0c0.185-0.184 0.3-0.439 0.3-0.721s-0.115-0.537-0.3-0.721l-0-0zM13.453 24.444c-6.113-0.101-11.029-5.079-11.029-11.207 0-6.19 5.018-11.208 11.208-11.208s11.208 5.018 11.208 11.208v0c-0.053 6.202-5.093 11.208-11.302 11.208-0.030 0-0.059-0-0.089-0l0.005 0z"></path>
</symbol>
<symbol id="icon-stack" viewBox="0 0 35 32">
<path d="M17.511 0.016l-17.504 9.439 17.504 9.439 17.503-9.439zM17.511 21.94l-14.25-7.684-3.254 1.756 17.504 9.431 17.503-9.431-3.254-1.756zM17.511 28.489l-14.25-7.684-3.254 1.756 17.504 9.439 17.503-9.439-3.254-1.756z"></path>
</symbol>
<symbol id="icon-suitcase" viewBox="0 0 46 32">
<path d="M7.41 11.595c1.008-1.878 2.923-3.154 5.144-3.242l0.012-0h23.54v-1.491c-0.001-1.223-0.987-2.216-2.208-2.227h-9.719v-1.293c0-0.006 0-0.013 0-0.021 0-1.83-1.477-3.316-3.304-3.329h-5.65c-1.834 0.016-3.314 1.507-3.314 3.343 0 0.003 0 0.005 0 0.008v-0 1.293h-9.709c-1.222 0.008-2.209 1-2.209 2.223 0 0.002 0 0.003 0 0.005v-0 19.911zM14.118 3.341c0.001-0.308 0.124-0.587 0.324-0.791l-0 0c0.194-0.2 0.464-0.323 0.764-0.323 0.006 0 0.012 0 0.018 0h5.648c0.61 0.001 1.105 0.495 1.105 1.106 0 0.003 0 0.006-0 0.009v-0 1.293h-7.859v-1.293zM36.976 30.015c-0.64 1.14-1.811 1.916-3.169 1.993l-0.010 0h-31.704c-0.058 0.009-0.124 0.015-0.192 0.015-0.703 0-1.273-0.57-1.273-1.273 0-0.276 0.088-0.531 0.237-0.74l-0.003 0.004 8.523-17.441c0.642-1.138 1.812-1.913 3.169-1.993l0.011-0.001h31.704c0.058-0.009 0.124-0.015 0.192-0.015 0.703 0 1.273 0.57 1.273 1.273 0 0.276-0.088 0.531-0.237 0.74l0.003-0.004z"></path>
</symbol>
<symbol id="icon-print" viewBox="0 0 26 28">
<path d="M6 24h14v-4h-14v4zM6 14h14v-6h-2.5c-0.828 0-1.5-0.672-1.5-1.5v-2.5h-10v10zM24 15c0-0.547-0.453-1-1-1s-1 0.453-1 1 0.453 1 1 1 1-0.453 1-1zM26 15v6.5c0 0.266-0.234 0.5-0.5 0.5h-3.5v2.5c0 0.828-0.672 1.5-1.5 1.5h-15c-0.828 0-1.5-0.672-1.5-1.5v-2.5h-3.5c-0.266 0-0.5-0.234-0.5-0.5v-6.5c0-1.641 1.359-3 3-3h1v-8.5c0-0.828 0.672-1.5 1.5-1.5h10.5c0.828 0 1.969 0.469 2.562 1.062l2.375 2.375c0.594 0.594 1.062 1.734 1.062 2.562v4h1c1.641 0 3 1.359 3 3z"></path>
</symbol>
<symbol id="icon-map-marker" viewBox="0 0 16 28">
<path d="M12 10c0-2.203-1.797-4-4-4s-4 1.797-4 4 1.797 4 4 4 4-1.797 4-4zM16 10c0 0.953-0.109 1.937-0.516 2.797l-5.688 12.094c-0.328 0.688-1.047 1.109-1.797 1.109s-1.469-0.422-1.781-1.109l-5.703-12.094c-0.406-0.859-0.516-1.844-0.516-2.797 0-4.422 3.578-8 8-8s8 3.578 8 8z"></path>
</symbol>
<symbol id="icon-camera-retro" viewBox="0 0 28 28">
<path d="M14.5 13c0-0.281-0.219-0.5-0.5-0.5-1.375 0-2.5 1.125-2.5 2.5 0 0.281 0.219 0.5 0.5 0.5s0.5-0.219 0.5-0.5c0-0.828 0.672-1.5 1.5-1.5 0.281 0 0.5-0.219 0.5-0.5zM18 15.031c0 2.203-1.797 4-4 4s-4-1.797-4-4 1.797-4 4-4 4 1.797 4 4zM2 24h24v-2h-24v2zM20 15.031c0-3.313-2.688-6-6-6s-6 2.688-6 6 2.688 6 6 6 6-2.688 6-6zM4 5h6v-2h-6v2zM2 8h24v-4h-12.938l-1 2h-10.063v2zM28 4v20c0 1.109-0.891 2-2 2h-24c-1.109 0-2-0.891-2-2v-20c0-1.109 0.891-2 2-2h24c1.109 0 2 0.891 2 2z"></path>
</symbol>
<symbol id="icon-feed" viewBox="0 0 22 28">
<path d="M6 21c0 1.656-1.344 3-3 3s-3-1.344-3-3 1.344-3 3-3 3 1.344 3 3zM14 22.922c0.016 0.281-0.078 0.547-0.266 0.75-0.187 0.219-0.453 0.328-0.734 0.328h-2.109c-0.516 0-0.938-0.391-0.984-0.906-0.453-4.766-4.234-8.547-9-9-0.516-0.047-0.906-0.469-0.906-0.984v-2.109c0-0.281 0.109-0.547 0.328-0.734 0.172-0.172 0.422-0.266 0.672-0.266h0.078c3.328 0.266 6.469 1.719 8.828 4.094 2.375 2.359 3.828 5.5 4.094 8.828zM22 22.953c0.016 0.266-0.078 0.531-0.281 0.734-0.187 0.203-0.438 0.313-0.719 0.313h-2.234c-0.531 0-0.969-0.406-1-0.938-0.516-9.078-7.75-16.312-16.828-16.844-0.531-0.031-0.938-0.469-0.938-0.984v-2.234c0-0.281 0.109-0.531 0.313-0.719 0.187-0.187 0.438-0.281 0.688-0.281h0.047c5.469 0.281 10.609 2.578 14.484 6.469 3.891 3.875 6.188 9.016 6.469 14.484z"></path>
</symbol>
<symbol id="icon-truck" viewBox="0 0 29 28">
<path d="M10 22c0-1.094-0.906-2-2-2s-2 0.906-2 2 0.906 2 2 2 2-0.906 2-2zM4 14h6v-4h-2.469c-0.063 0-0.297 0.094-0.344 0.141l-3.047 3.047c-0.047 0.047-0.141 0.281-0.141 0.344v0.469zM24 22c0-1.094-0.906-2-2-2s-2 0.906-2 2 0.906 2 2 2 2-0.906 2-2zM28 5v16c0 1.156-1.219 1-2 1 0 2.203-1.797 4-4 4s-4-1.797-4-4h-6c0 2.203-1.797 4-4 4s-4-1.797-4-4h-1c-0.781 0-2 0.156-2-1 0-0.547 0.453-1 1-1v-5c0-1.109-0.156-2.344 0.703-3.203l3.094-3.094c0.391-0.391 1.141-0.703 1.703-0.703h2.5v-3c0-0.547 0.453-1 1-1h16c0.547 0 1 0.453 1 1z"></path>
</symbol>
<symbol id="icon-menu" viewBox="0 0 32 32">
<path d="M2 6h28v6h-28zM2 14h28v6h-28zM2 22h28v6h-28z"></path>
</symbol>
</defs>
</svg>
