<svg aria-hidden="true" style="position: absolute; width: 0; height: 0; overflow: hidden;" version="1.1" xmlns="http://www.w3.org/2000/svg" xmlns:xlink="http://www.w3.org/1999/xlink">
<defs>
<symbol id="icon-phone" viewBox="0 0 20 20">
<path d="M20 18.35v0.65c0 0.552-0.448 1-1 1v0h-2c-9.389 0-17-7.611-17-17v0-2c0-0.552 0.448-1 1-1v0h4c0.552 0 1 0.448 1 1v0 4c0 0.56-0.31 1.31-0.7 1.7l-2.14 2.14c1.52 3.6 4.4 6.48 8 8l2.12-2.12c0.4-0.4 1.15-0.71 1.7-0.71h4.020c0.548 0.006 0.99 0.451 0.99 1 0 0 0 0 0 0v0 3.35z"></path>
</symbol>
<symbol id="icon-phone1" viewBox="0 0 19 32">
<path d="M1.5 32h16c0.827 0 1.5-0.673 1.5-1.5v-29c0-0.827-0.673-1.5-1.5-1.5h-16c-0.827 0-1.5 0.673-1.5 1.5v29c0 0.827 0.673 1.5 1.5 1.5zM1 1.5c0-0.276 0.224-0.5 0.5-0.5h16c0.276 0 0.5 0.224 0.5 0.5v29c0 0.276-0.224 0.5-0.5 0.5h-16c-0.276 0-0.5-0.224-0.5-0.5v-29zM2.5 27h14c0.276 0 0.5-0.224 0.5-0.5v-21c0-0.276-0.224-0.5-0.5-0.5h-14c-0.276 0-0.5 0.224-0.5 0.5v21c0 0.276 0.224 0.5 0.5 0.5zM3 6h13v20h-13v-20zM9 29c0 0.552 0.448 1 1 1s1-0.448 1-1c0-0.552-0.448-1-1-1s-1 0.448-1 1zM7.5 4h4c0.276 0 0.5-0.224 0.5-0.5s-0.224-0.5-0.5-0.5h-4c-0.276 0-0.5 0.224-0.5 0.5s0.224 0.5 0.5 0.5z"></path>
</symbol>
<symbol id="icon-linkedin" viewBox="0 0 32 32">
<path d="M19.515 11.952c-0.678 0-1.18 0.171-1.573 0.387-0.063-0.224-0.27-0.388-0.514-0.339h-2.984c-0.295-0.049-0.534 0.19-0.443 0.5v11c-0.091 0.28 0.148 0.52 0.443 0.5h2.984c0.295 0.020 0.534-0.22 0.534-0.515l-0.001-6.648c-0.001-0.003-0.012-0.321 0.189-0.54 0.161-0.174 0.438-0.263 0.821-0.263 0.638 0 0.922 0.261 1.028 0.845v6.606c-0.105 0.295 0.134 0.535 0.429 0.515h3.145c0.295 0.020 0.534-0.22 0.428-0.515v-6.828c0.105-3.472-2.368-4.705-4.486-4.705zM23.038 23h-2.076v-6.121c0-1.181-0.763-1.913-1.99-1.913-0.694 0-1.234 0.204-1.606 0.606-0.517 0.56-0.477 1.27-0.366 1.428v6h-2.022v-9.98h1.916v0.336c0 0.203 0.115 0.39 0.298 0.479s0.4 0.067 0.562-0.056l0.14-0.108c0.405-0.319 0.824-0.65 1.622-0.65 0.826 0 3.523 0.263 3.523 3.637v6.342zM11 6.966c-1.122 0-2.034 0.912-2.034 2.034s0.912 2.034 2.034 2.034 2.034-0.912 2.034-2.034-0.912-2.034-2.034-2.034zM11 9.966c-0.532 0-0.966-0.434-0.966-0.966s0.434-0.966 0.966-0.966 0.966 0.434 0.966 0.966-0.434 0.966-0.966 0.966zM12.428 11.951h-2.968c-0.295 0-0.534 0.239-0.46 0.549v11c-0.074 0.28 0.165 0.52 0.46 0.5h2.968c0.295 0.020 0.534-0.22 0.534-0.515v-11c0-0.295-0.239-0.534-0.534-0.534zM12 23h-2.006v-9.98h2.006v9.98zM16-0.034c-8.842 0-16.034 7.192-16.034 16.034s7.192 16.034 16.034 16.034 16.034-7.192 16.034-16.034-7.192-16.034-16.034-16.034zM16 30.966c-8.252 0-14.966-6.714-14.966-14.966s6.714-14.966 14.966-14.966 14.966 6.714 14.966 14.966-6.714 14.966-14.966 14.966z"></path>
</symbol>
<symbol id="icon-googleplus" viewBox="0 0 32 32">
<path d="M16-0.034c-8.842 0-16.034 7.192-16.034 16.034s7.192 16.034 16.034 16.034 16.034-7.192 16.034-16.034-7.192-16.034-16.034-16.034zM16 30.966c-8.252 0-14.966-6.714-14.966-14.966s6.714-14.966 14.966-14.966 14.966 6.714 14.966 14.966-6.714 14.966-14.966 14.966zM18.034 9.562c0-0.295-0.239-0.534-0.534-0.534h-4.26c-0.026 0-0.047 0.011-0.072 0.015-0.057-0.002-0.11-0.015-0.168-0.015-2.225 0-4.034 1.543-4.034 3.44s1.81 3.44 4.034 3.44c0.307 0 0.603-0.035 0.891-0.091-0.075 0.291-0.116 0.625-0.066 0.998 0.047 0.349 0.186 0.683 0.368 1.008-0.371-0.065-0.753-0.109-1.151-0.109-2.752 0-4.991 1.655-4.991 3.69s2.239 3.69 4.991 3.69c2.753 0 4.992-1.655 4.992-3.69 0-1.046-0.598-1.987-1.547-2.659-0.038-0.096-0.095-0.185-0.187-0.247-0.848-0.574-1.323-1.184-1.413-1.812-0.1-0.699 0.312-1.21 0.333-1.236 0.045-0.053 0.076-0.113 0.097-0.175 1.036-0.623 1.718-1.647 1.718-2.808 0-0.921-0.432-1.754-1.125-2.372h1.59c0.295 0.002 0.534-0.238 0.534-0.533zM13.042 24.028c-2.163 0-3.923-1.177-3.923-2.622s1.76-2.622 3.923-2.622 3.924 1.177 3.924 2.622-1.761 2.622-3.924 2.622zM13 14.841c-1.635 0-2.966-1.064-2.966-2.372s1.331-2.372 2.966-2.372 2.966 1.064 2.966 2.372-1.331 2.372-2.966 2.372zM25.312 12h-2.341v-2.375c0-0.295-0.239-0.534-0.534-0.534s-0.534 0.239-0.437 0.409v2.5h-2.438c-0.295-0.034-0.534 0.205-0.534 0.5s0.239 0.534 0.534 0.5h2.438v2.375c0 0.295 0.143 0.534 0.438 0.534s0.534-0.239 0.534-0.534v-2.375h2.341c0.295 0.034 0.534-0.205 0.534-0.5s-0.24-0.534-0.535-0.5z"></path>
</symbol>
<symbol id="icon-twitter" viewBox="0 0 32 32">
<path d="M16-0.034c-8.841 0-16.035 7.192-16.035 16.034s7.194 16.034 16.035 16.034 16.035-7.192 16.035-16.034-7.194-16.034-16.035-16.034zM16 30.966c-8.252 0-14.965-6.714-14.965-14.966s6.713-14.966 14.965-14.966 14.965 6.714 14.965 14.966-6.713 14.966-14.965 14.966zM24.794 11.046c0.11-0.204 0.202-0.419 0.273-0.643 0.067-0.212-0.002-0.442-0.176-0.581-0.173-0.138-0.415-0.154-0.605-0.042-0.513 0.305-1.065 0.53-1.646 0.673-0.698-0.631-1.615-0.987-2.562-0.987-2.105 0-3.817 1.712-3.817 3.815 0 0.053 0.001 0.105 0.003 0.158-2.235-0.279-4.298-1.415-5.735-3.178-0.11-0.136-0.28-0.207-0.456-0.195-0.175 0.014-0.332 0.112-0.42 0.265-0.338 0.58-0.517 1.243-0.517 1.919 0 0.64 0.159 1.256 0.451 1.802-0.074 0.012-0.147 0.039-0.214 0.078-0.163 0.097-0.264 0.292-0.264 0.481 0 1.135 0.505 2.177 1.319 2.885-0.012 0.011-0.023 0.023-0.035 0.035-0.125 0.142-0.166 0.338-0.108 0.518 0.351 1.094 1.164 1.946 2.184 2.365-1.041 0.515-2.25 0.716-3.406 0.579-0.244-0.022-0.481 0.116-0.566 0.352-0.083 0.234 0.005 0.495 0.215 0.63 1.592 1.020 3.431 1.559 5.319 1.559 6.18 0 9.874-5.020 9.874-9.873 0-0.055 0-0.109-0.001-0.164 0.597-0.466 1.115-1.023 1.541-1.66 0.132-0.197 0.118-0.459-0.035-0.641-0.151-0.179-0.4-0.241-0.616-0.15zM23.049 12.801c-0.147 0.106-0.231 0.279-0.222 0.461 0.006 0.132 0.009 0.266 0.009 0.398 0 4.328-3.293 8.805-8.804 8.805-0.989 0-1.964-0.166-2.887-0.488 1.105-0.211 2.141-0.682 3.045-1.39 0.178-0.14 0.249-0.376 0.177-0.591-0.072-0.214-0.271-0.36-0.497-0.364-0.891-0.018-1.699-0.461-2.194-1.162 0.253-0.017 0.501-0.059 0.742-0.124 0.239-0.065 0.401-0.286 0.393-0.534s-0.186-0.457-0.429-0.506c-1.003-0.201-1.79-0.943-2.081-1.905 0.266 0.067 0.539 0.106 0.812 0.115 0.235-0.001 0.453-0.145 0.526-0.371s-0.013-0.475-0.212-0.607c-0.765-0.512-1.222-1.366-1.222-2.287 0-0.223 0.027-0.443 0.079-0.658 1.731 1.775 4.080 2.847 6.568 2.972 0.176 0.001 0.33-0.062 0.437-0.191s0.148-0.3 0.11-0.464c-0.047-0.203-0.071-0.414-0.071-0.627 0-1.515 1.233-2.747 2.748-2.747 0.757 0 1.488 0.316 2.005 0.868 0.126 0.135 0.312 0.194 0.494 0.159 0.165-0.033 0.328-0.071 0.489-0.115-0.072 0.054-0.147 0.104-0.226 0.151-0.216 0.129-0.312 0.393-0.231 0.631s0.324 0.394 0.569 0.357c0.061-0.007 0.121-0.015 0.182-0.023-0.099 0.082-0.203 0.161-0.309 0.237z"></path>
</symbol>
<symbol id="icon-facebook" viewBox="0 0 32 32">
<path d="M16-0.034c-8.841 0-16.035 7.192-16.035 16.034s7.194 16.034 16.035 16.034 16.035-7.192 16.035-16.034-7.194-16.034-16.035-16.034zM16 30.966c-8.252 0-14.965-6.714-14.965-14.966s6.713-14.966 14.965-14.966 14.965 6.714 14.965 14.966-6.713 14.966-14.965 14.966zM19.5 7h-2.668c-3.398-0.034-3.832 2.069-3.832 4.345v1.655h-1.5c-0.295-0.034-0.535 0.205-0.5 0.5v3c-0.035 0.295 0.205 0.534 0.5 0.5h1.5v7.5c-0.031 0.295 0.208 0.534 0.503 0.5h3.055c0.295 0.034 0.534-0.205 0.44-0.5l0.002-7.5h2.5c0.295 0.034 0.535-0.205 0.5-0.5v-3c0.035-0.295-0.205-0.534-0.5-0.5h-2.503l0.003-1.5c0.097-0.639 0.097-0.535 0.69-0.5h1.789c0.139-0.031 0.287-0.014 0.391-0.115s0.164-0.239 0.129-0.385v-3c0.036-0.295-0.204-0.534-0.499-0.5zM18.965 9.944l-1.254-0.048c-1.553 0-1.683 0.843-1.683 1.706l-0.004 1.896c0 0.142 0.056 0.278 0.156 0.379s0.236 0.156 0.378 0.156h2.442v1.932h-2.44c-0.295 0-0.534 0.239-0.535 0.534l-0.001 7.501h-2.024v-7.5c0-0.295-0.201-0.534-0.497-0.534h-1.503v-1.932h1.503c0.142 0 0.278-0.056 0.378-0.156s0.118-0.237 0.118-0.379v-2.155c0-2.242 0.453-3.31 2.832-3.31h2.133v1.91z"></path>
</symbol>
<symbol id="icon-sports_tennis" viewBox="0 0 24 24">
<path d="M18 15q1.641 0 2.813 1.172t1.172 2.813-1.172 2.836-2.813 1.195-2.813-1.172-1.172-2.859q0-1.641 1.172-2.813t2.813-1.172zM18 17.016q-0.844 0-1.406 0.563-0.609 0.609-0.609 1.406t0.609 1.406 1.406 0.609q0.844 0 1.406-0.563 0.609-0.609 0.609-1.43t-0.609-1.43q-0.563-0.563-1.406-0.563zM10.313 11.672q1.172 1.172 3.164 0.867t3.586-1.898 1.898-3.586-0.867-3.164-3.141-0.844-3.563 1.922-1.922 3.563 0.844 3.141zM19.5 2.484q1.734 1.781 1.453 4.57t-2.484 4.992q-1.172 1.172-2.695 1.852t-2.789 0.68h-1.523t-0.797 0.023-0.867 0.117-0.773 0.234-0.82 0.398-0.703 0.586l-4.219 4.219-1.453-1.406 4.266-4.219q0.328-0.328 0.586-0.703t0.398-0.82 0.234-0.797 0.117-0.891 0.023-0.797v-1.523q0-1.219 0.68-2.742t1.852-2.695q2.203-2.203 4.992-2.531t4.523 1.453z"></path>
</symbol>
</defs>
</svg>
